<svg width="21" height="20" viewBox="0 0 21 20" fill="none" xmlns="http://www.w3.org/2000/svg">
<path d="M7.72266 19.064C8.17909 19.064 8.5491 18.6751 8.5491 18.1955C8.5491 17.7158 8.17909 17.3269 7.72266 17.3269C7.26622 17.3269 6.89621 17.7158 6.89621 18.1955C6.89621 18.6751 7.26622 19.064 7.72266 19.064Z" stroke="white" stroke-width="1.5" stroke-linecap="round" stroke-linejoin="round"/>
<path d="M16.8136 19.064C17.27 19.064 17.6401 18.6751 17.6401 18.1955C17.6401 17.7158 17.27 17.3269 16.8136 17.3269C16.3572 17.3269 15.9872 17.7158 15.9872 18.1955C15.9872 18.6751 16.3572 19.064 16.8136 19.064Z" stroke="white" stroke-width="1.5" stroke-linecap="round" stroke-linejoin="round"/>
<path d="M1.11113 0.824448H4.41691L6.63179 12.4543C6.70736 12.8542 6.91436 13.2134 7.21654 13.4691C7.51872 13.7247 7.89683 13.8605 8.28468 13.8527H16.3177C16.7056 13.8605 17.0837 13.7247 17.3859 13.4691C17.6881 13.2134 17.8951 12.8542 17.9706 12.4543L19.2929 5.1672H5.24336" stroke="white" stroke-width="1.5" stroke-linecap="round" stroke-linejoin="round"/>
</svg>
