<svg width="68" height="22" viewBox="0 0 68 22" fill="none" xmlns="http://www.w3.org/2000/svg">
<path d="M11 20.375C16.1777 20.375 20.375 16.1777 20.375 11C20.375 5.82233 16.1777 1.625 11 1.625C5.82233 1.625 1.625 5.82233 1.625 11C1.625 16.1777 5.82233 20.375 11 20.375Z" stroke="#828282" stroke-width="1.5" stroke-linecap="round" stroke-linejoin="round"/>
<path d="M2.25 7.875H19.75" stroke="#828282" stroke-width="1.5" stroke-linecap="round" stroke-linejoin="round"/>
<path d="M2.25 14.125H19.75" stroke="#828282" stroke-width="1.5" stroke-linecap="round" stroke-linejoin="round"/>
<path d="M10.4791 1.625C8.72429 4.4371 7.79395 7.68528 7.79395 11C7.79395 14.3147 8.72429 17.5629 10.4791 20.375" stroke="#828282" stroke-width="1.5" stroke-linecap="round" stroke-linejoin="round"/>
<path d="M11.5208 1.625C13.2757 4.4371 14.206 7.68528 14.206 11C14.206 14.3147 13.2757 17.5629 11.5208 20.375" stroke="#828282" stroke-width="1.5" stroke-linecap="round" stroke-linejoin="round"/>
<path d="M29.084 16L33.48 6.06H34.558L38.968 16H37.61L36.322 13.102H31.688L30.428 16H29.084ZM33.998 7.824L32.206 11.926H35.804L33.998 7.824ZM39.5248 16V15.132L44.9148 7.292H39.6788V6.06H46.6368V6.928L41.2468 14.768H46.7768V16H39.5248Z" fill="#1D2123"/>
<path d="M56.8571 7.875L62 13.125L67.1428 7.875" stroke="#1D2123" stroke-width="1.5" stroke-linecap="round" stroke-linejoin="round"/>
</svg>
